<?xml version="1.0" standalone="no"?>
<!DOCTYPE svg PUBLIC "-//W3C//DTD SVG 20010904//EN"
 "http://www.w3.org/TR/2001/REC-SVG-20010904/DTD/svg10.dtd">
<svg version="1.0" xmlns="http://www.w3.org/2000/svg"
 width="900.000000pt" height="900.000000pt" viewBox="0 0 900.000000 900.000000"
 preserveAspectRatio="xMidYMid meet">

<g transform="translate(0.000000,900.000000) scale(0.100000,-0.100000)"
fill="#f5fffc" stroke="none">
<path d="M4522 8010 c-12 -5 -140 -74 -285 -154 -144 -79 -428 -235 -632 -346
-614 -336 -1184 -649 -1295 -710 -58 -32 -292 -160 -520 -285 -228 -125 -532
-292 -675 -370 -143 -78 -298 -161 -345 -183 -146 -70 -245 -168 -324 -322
-59 -113 -86 -219 -93 -355 -6 -130 7 -228 46 -343 40 -114 83 -184 173 -274
l77 -78 -51 -48 c-152 -142 -236 -338 -245 -572 -10 -249 59 -443 212 -598
l83 -84 -57 -57 c-313 -308 -324 -870 -22 -1172 112 -111 223 -166 429 -209
75 -16 434 -94 797 -174 1146 -252 2660 -584 2923 -642 204 -45 259 -54 282
-46 21 8 2937 1644 3544 1989 99 57 126 113 90 189 -30 62 -107 83 -175 49
-31 -16 -1022 -573 -2853 -1604 l-660 -371 -405 89 c-223 50 -550 122 -726
160 -176 38 -516 113 -755 166 -239 52 -536 117 -660 145 -124 27 -378 83
-565 124 -187 41 -465 102 -618 136 -153 33 -297 68 -320 77 -97 38 -196 132
-242 230 -85 178 -68 430 40 598 67 104 186 185 277 186 23 1 219 -37 433 -85
215 -47 719 -158 1120 -246 402 -88 1110 -244 1574 -346 500 -110 859 -184
880 -182 25 2 237 116 671 360 3025 1703 2954 1662 2977 1697 40 59 23 133
-40 171 -39 24 -78 25 -120 4 -26 -14 -1983 -1114 -2582 -1452 -82 -46 -224
-126 -315 -177 -91 -51 -266 -149 -389 -219 -123 -69 -232 -126 -242 -126 -10
0 -152 29 -316 65 -164 37 -370 82 -458 101 -88 19 -290 64 -450 99 -523 115
-1756 386 -1935 425 -976 214 -930 200 -1031 300 -66 65 -103 133 -130 238
-60 236 26 504 200 620 113 75 115 75 516 -13 193 -42 420 -92 505 -111 85
-18 351 -77 590 -130 239 -53 458 -98 486 -101 89 -9 144 39 144 126 0 48 -35
95 -83 110 -18 6 -250 58 -517 117 -267 58 -564 123 -660 144 -96 21 -332 73
-525 114 -388 85 -439 103 -524 187 -200 197 -201 584 -2 801 56 61 143 112
189 110 15 -1 700 -146 1522 -322 822 -177 1567 -337 1655 -355 88 -19 308
-66 488 -105 181 -38 346 -70 367 -70 33 0 164 70 832 446 436 246 899 506
1028 579 1275 716 1759 991 1782 1013 50 46 49 122 0 172 -22 21 -50 32 -122
49 -52 11 -291 64 -530 116 -525 115 -576 127 -1185 261 -264 58 -622 136
-795 174 -173 38 -562 123 -864 190 -301 66 -553 120 -560 119 -6 0 -21 -4
-34 -9z m773 -1035 c209 -46 489 -107 623 -136 133 -30 242 -56 242 -59 0 -4
-174 -105 -386 -225 l-386 -219 -62 13 c-33 7 -252 55 -486 106 -234 51 -503
110 -597 131 -95 21 -173 41 -173 44 0 4 62 41 138 83 75 43 247 140 382 217
228 131 248 140 285 135 22 -4 211 -44 420 -90z"/>
<path d="M7955 5542 c-292 -164 -912 -514 -1380 -777 -467 -263 -1025 -577
-1239 -697 l-389 -219 -116 25 c-593 131 -714 156 -741 156 -65 0 -120 -56
-120 -122 0 -45 33 -96 73 -112 58 -24 924 -209 948 -203 13 4 121 61 239 128
118 66 274 154 345 194 757 424 3004 1691 3022 1703 71 46 67 162 -6 205 -67
39 -68 39 -636 -281z"/>
</g>
</svg>
